<svg xmlns="http://www.w3.org/2000/svg" viewBox="0 0 32 32" width="48" height="48"><g><circle cx="16" cy="16" r="16" fill="#25D366"/><path fill="#FFF" d="M22.1 19.7c-.3-.2-1.7-.8-2-1-.3-.1-.5-.2-.7.1-.2.3-.7 1-.9 1.2-.2.2-.3.2-.6.1-.3-.2-1.2-.4-2.3-1.3-.8-.7-1.3-1.5-1.5-1.8-.2-.3 0-.4.1-.6.1-.1.2-.3.3-.4.1-.1.1-.2.2-.3.1-.1.1-.2.2-.3.1-.2.1-.3 0-.5-.1-.2-.7-1.7-.9-2.3-.2-.6-.4-.5-.6-.5-.2 0-.4 0-.6 0-.2 0-.5.1-.7.3-.2.2-.7.7-.7 1.7 0 1 .7 2.1 1.5 3.1 1.8 2.1 3.6 2.7 4.3 2.7.7 0 1.2-.1 1.6-.2.4-.1 1.2-.5 1.4-1 .2-.5.2-.9.1-1.1z"/></g></svg>