<svg xmlns="http://www.w3.org/2000/svg" viewBox="0 0 473 68" fill="none" fill-rule="evenodd">
  <path d="M130.66,8.63a28,28,0,0,0-22,8.55,28.94,28.94,0,0,0-9,22,28.83,28.83,0,0,0,9.19,20.85q9,8.74,20.7,8.55a29.48,29.48,0,0,0,27.7-20.1h-8.1q-5.81,12.3-19.3,12.5a21.84,21.84,0,0,1-15.1-5.5,21.17,21.17,0,0,1-7.29-14.2h51.19v-4.1q0-10.6-8.1-19.2A29.29,29.29,0,0,0,130.66,8.63Zm-23.29,25.7a22.45,22.45,0,0,1,36.19-12.95,22,22,0,0,1,7.5,13Zm88.08-25.4a24.27,24.27,0,0,0-18.09,7.35q-7.2,7.35-7.2,18.45v32.5h7.6V33.93A16.81,16.81,0,0,1,183,21.53a17.3,17.3,0,0,1,24.73,0,16.81,16.81,0,0,1,5.28,12.4v33.3h7.6V34.73q0-11.1-7.2-18.45A24.16,24.16,0,0,0,195.45,8.93ZM87.87,11.23a16.61,16.61,0,0,0-7.1,7.1v-8.1h-7.1v57h8V33.13a17.54,17.54,0,0,1,1.9-8.8,20.23,20.23,0,0,1,4.5-4.7,14,14,0,0,1,8.6-2.9V9.13A16.87,16.87,0,0,0,87.87,11.23ZM291.12,57.16,271.75,10.23h-8l23.4,57h7.9l23.79-57h-8.45ZM376.24,8.93a24.28,24.28,0,0,0-18.1,7.35q-7.2,7.35-7.2,18.45v32.5h7.6V33.93a16.81,16.81,0,0,1,5.28-12.4,17.3,17.3,0,0,1,24.73,0,16.81,16.81,0,0,1,5.28,12.4v33.3h7.6V34.73q0-11.1-7.2-18.45A24.16,24.16,0,0,0,376.24,8.93Zm97.18,28.3q0-10.6-8.09-19.2a29.29,29.29,0,0,0-19.8-9.4,28,28,0,0,0-22,8.55,29,29,0,0,0-9.05,22,28.8,28.8,0,0,0,9.2,20.85q9,8.74,20.7,8.55A29.48,29.48,0,0,0,472,48.53h-8.1q-5.81,12.3-19.3,12.5a21.84,21.84,0,0,1-15.1-5.5,21.14,21.14,0,0,1-7.3-14.2h51.19Zm-51.19-2.9a22.46,22.46,0,0,1,36.2-12.95,22,22,0,0,1,7.5,13ZM241.25,0l-7.6,4.39V50.73q0,17.7,20.8,17.7v-6.3q-13.2,0-13.2-12.7V17.23h13.2v-7.1h-13.2Z" fill="#ffffff"></path>
</svg>