<svg xmlns="http://www.w3.org/2000/svg" width="143.028" height="100.856" viewBox="0 0 143.028 100.856"><g transform="translate(-895.36 -375.88)"><path d="M895.36,516.461h8.784v-2.474h-2.822v-5.93h4.535a9.582,9.582,0,0,0,3.362-.476,7.2,7.2,0,0,0,.412-12.907,9.4,9.4,0,0,0-3.837-.6H895.36v2.442h2.791v17.474H895.36v2.474Zm5.962-11v-8.785h4.187a5.809,5.809,0,0,1,2.727.539,4.017,4.017,0,0,1,2,3.806,4.064,4.064,0,0,1-2.252,4,6.441,6.441,0,0,1-2.505.444Zm13.891,6.533c0,3.3,2.664,4.852,5.328,4.852a5.832,5.832,0,0,0,5.3-3.393h.064a3.9,3.9,0,0,0-.127,1.047v.222c0,1.046.571,1.744,2,1.744h3.2v-2.378h-1.618a.621.621,0,0,1-.7-.7v-7.167c0-4.059-2.156-6.184-6.248-6.184a10.306,10.306,0,0,0-6.089,1.9l1.237,2.189a8.536,8.536,0,0,1,4.6-1.554c1.966,0,3.425.888,3.425,3.425v.6h-1.015c-2.664,0-9.356.349-9.356,5.391Zm3.108-.253c0-3.076,5.042-3.14,6.5-3.14h.793v.666c0,2.41-1.681,5.2-4.408,5.2a2.709,2.709,0,0,1-2.886-2.727Zm14.715-3.266c0,5.169,4.028,8.372,8.658,8.372a9.785,9.785,0,0,0,6.438-2.474l-1.174-2.252a8.143,8.143,0,0,1-5.137,2.062,5.46,5.46,0,0,1-5.646-5.772c0-3.425,2.22-5.708,5.455-5.708,1.427,0,3.457.6,3.457,1.839v1.11h2.727V503.68c0-2.759-3.9-3.647-6.279-3.647a8.252,8.252,0,0,0-8.5,8.436Zm17.569-.032a8.172,8.172,0,0,0,8.5,8.4,9.833,9.833,0,0,0,6.248-2.22l-1.268-2.252a7.81,7.81,0,0,1-4.789,1.808,5.4,5.4,0,0,1-5.55-5.455h11.734s.1-.761.1-1.174c0-4.154-2.378-7.516-6.945-7.516s-8.024,3.3-8.024,8.4Zm3.266-1.681a4.716,4.716,0,0,1,4.694-4.281c2.029,0,3.742,1.459,3.837,4.281Zm14.62,9.7h7.865v-2.378h-2.378v-4.249c0-3.14,1.459-6.6,4.884-6.6a4.064,4.064,0,0,1,.888.095v-3.044a5.152,5.152,0,0,0-5.867,4.123h-.064a9.3,9.3,0,0,0,.064-1.11v-1.015c0-1.3-.666-1.871-2.062-1.871h-3.616v2.379h2a.621.621,0,0,1,.7.7v10.592h-2.41v2.378Zm14.524-4.567c0,3.743,1.966,4.662,4.25,4.662.729,0,1.364-.063,1.364-.063l.031-2.537s-.349.032-.856.032c-1.4,0-1.712-.92-1.712-2.283V494.071h-5.74v2.378h2.664v15.444Zm10.561-14.683h3.235v-3.139h-3.235v3.139Zm-2.442,19.25h8.119v-2.378h-2.537V500.413h-5.74v2.379h2.664v11.29h-2.505v2.378Zm10.656,0h8.119v-2.378h-2.537v-5.074c0-3.2,2.125-6.152,5.36-6.152,2.569,0,3.013,1.776,3.013,4.028v9.577h5.613v-2.378h-2.537v-7.9c0-4.091-1.649-6.152-5.328-6.152a6.749,6.749,0,0,0-6.247,3.9h-.063a4.577,4.577,0,0,0,.095-.92v-.824c0-1.174-.634-1.776-2.029-1.776h-3.616v2.379h1.966a.621.621,0,0,1,.7.7v10.592h-2.505v2.378Zm21.629-8.023a8.171,8.171,0,0,0,8.5,8.4,9.832,9.832,0,0,0,6.248-2.22l-1.268-2.252a7.81,7.81,0,0,1-4.789,1.808,5.4,5.4,0,0,1-5.55-5.455h11.734s.095-.761.095-1.174c0-4.154-2.378-7.516-6.945-7.516s-8.023,3.3-8.023,8.4Zm3.266-1.681a4.716,4.716,0,0,1,4.694-4.281c2.03,0,3.742,1.459,3.837,4.281Z" transform="translate(0 -53.492)" fill="#092870" fill-rule="evenodd"/><path d="M895.855,546.653a3.662,3.662,0,1,0,7.322,0,3.661,3.661,0,0,0-7.322,0Zm1.039,0a2.62,2.62,0,1,1,5.234,0,2.625,2.625,0,1,1-5.234,0Zm7.826,1.775c0,1.352.575,1.956,1.674,1.956a2.086,2.086,0,0,0,1.947-1.21h.02a2.194,2.194,0,0,0-.02.3v.222c0,.363.2.565.646.565h1.059v-.746h-.534a.2.2,0,0,1-.222-.222V545.16h-1.835v.757h.857v1.593a1.826,1.826,0,0,1-1.654,1.987c-.817,0-.958-.565-.958-1.271V545.16h-1.836v.757h.857v2.511Zm6.637-.03A1.756,1.756,0,0,0,913.3,550.3a2.749,2.749,0,0,0,.353-.02v-.817s-.09.01-.232.01c-.383,0-1.089-.131-1.089-1.17v-2.391h1.22v-.757h-1.22v-1.4h-.958v1.4H910.5v.757h.858V548.4Zm3,.766c0,.807,1.069,1.22,2,1.22,1.16,0,2.047-.534,2.047-1.5,0-.948-.9-1.281-1.684-1.543-.615-.212-1.18-.413-1.18-.9,0-.413.423-.615.908-.615s.9.212.9.524v.333h.857v-.615c0-.746-1.049-1.029-1.765-1.029-.887,0-1.886.4-1.886,1.412,0,.928.837,1.271,1.594,1.553.706.252,1.271.413,1.271.928,0,.424-.454.656-1.029.656s-1.17-.2-1.17-.636v-.333h-.857v.545ZM919.2,547.7a2.755,2.755,0,1,0,2.753-2.663A2.672,2.672,0,0,0,919.2,547.7Zm1,0a1.757,1.757,0,1,1,1.755,1.836A1.752,1.752,0,0,1,920.2,547.7Zm5.971.726c0,1.352.575,1.956,1.674,1.956a2.087,2.087,0,0,0,1.947-1.21h.02a2.253,2.253,0,0,0-.02.3v.222c0,.363.2.565.645.565H931.5v-.746h-.534a.2.2,0,0,1-.222-.222V545.16h-1.835v.757h.857v1.593a1.826,1.826,0,0,1-1.654,1.987c-.817,0-.958-.565-.958-1.271V545.16h-1.835v.757h.857v2.511Zm6.152,1.835h2.5v-.756h-.756v-1.352c0-1,.464-2.1,1.553-2.1a1.294,1.294,0,0,1,.282.03v-.968a1.639,1.639,0,0,0-1.866,1.311h-.02a2.949,2.949,0,0,0,.02-.353v-.323c0-.413-.212-.6-.655-.6h-1.15v.757h.636a.2.2,0,0,1,.222.222v3.369h-.766v.756Zm4.115-2.542a2.631,2.631,0,0,0,2.754,2.663,3.112,3.112,0,0,0,2.047-.787l-.373-.716a2.59,2.59,0,0,1-1.634.656,1.736,1.736,0,0,1-1.795-1.836,1.684,1.684,0,0,1,1.735-1.815c.454,0,1.1.192,1.1.585v.353h.867V546.2c0-.877-1.24-1.16-2-1.16a2.625,2.625,0,0,0-2.7,2.683Zm6.435-3.581H943.9v-1h-1.029v1Zm-.777,6.122h2.582v-.756h-.807V545.16h-1.826v.757h.847v3.59h-.8v.756Zm3.389,0h2.582v-.756h-.807v-1.614a1.824,1.824,0,0,1,1.7-1.956c.817,0,.958.565.958,1.281v3.046h1.785v-.756H950.9V547c0-1.3-.524-1.957-1.694-1.957a2.148,2.148,0,0,0-1.987,1.24h-.02a1.45,1.45,0,0,0,.03-.292v-.262c0-.373-.2-.565-.646-.565h-1.15v.757h.625a.2.2,0,0,1,.222.222v3.369h-.8v.756Zm7.686.948-.323.747a4.018,4.018,0,0,0,1.745.424,2.293,2.293,0,0,0,2.572-2.33v-3.933a.2.2,0,0,1,.222-.2h.565v-.757h-1.089c-.424,0-.585.192-.585.515a.8.8,0,0,0,.02.2h-.02a1.778,1.778,0,0,0-1.654-.837,2.269,2.269,0,0,0-2.239,2.552,2.351,2.351,0,0,0,2.279,2.612,1.664,1.664,0,0,0,1.533-.827h.02a2.017,2.017,0,0,0-.03.322v.4c0,1.049-.726,1.452-1.614,1.452a3.286,3.286,0,0,1-1.4-.343Zm1.684-1.856c-.918,0-1.473-.726-1.473-1.785,0-1.039.5-1.684,1.382-1.684.8,0,1.442.383,1.442,1.714s-.645,1.755-1.352,1.755Zm6.465-1.231v.747c0,1.019,1.241,1.513,2.35,1.513,1.321,0,2.431-.706,2.431-2.068,0-1.321-1.039-1.724-2.088-2.118-.8-.3-1.513-.555-1.513-1.311,0-.656.555-.978,1.251-.978.585,0,1.22.222,1.22.636v.494h.938V544.2c0-.777-1.089-1.18-2.158-1.18-1.2,0-2.279.575-2.279,1.916,0,1.261.958,1.664,1.9,2.017.878.343,1.715.615,1.715,1.443,0,.706-.6,1.089-1.412,1.089-.746,0-1.422-.313-1.422-.838v-.525Zm5.709-.413a2.6,2.6,0,0,0,2.7,2.673,3.127,3.127,0,0,0,1.987-.706l-.4-.716a2.482,2.482,0,0,1-1.523.575,1.718,1.718,0,0,1-1.765-1.735h3.732s.03-.242.03-.373a2.167,2.167,0,0,0-2.209-2.391,2.5,2.5,0,0,0-2.551,2.673Zm1.039-.535a1.5,1.5,0,0,1,1.492-1.361,1.244,1.244,0,0,1,1.221,1.361Zm4.649,3.086h2.5v-.756h-.756v-1.352c0-1,.464-2.1,1.553-2.1a1.294,1.294,0,0,1,.282.03v-.968a1.639,1.639,0,0,0-1.866,1.311h-.02a2.958,2.958,0,0,0,.02-.353v-.323c0-.413-.212-.6-.655-.6h-1.15v.757h.636a.2.2,0,0,1,.222.222v3.369h-.767v.756Zm3.853-4.347h.646l1.644,4.347h1.1l1.654-4.347h.635v-.757h-2.279v.757h.655l-1.089,2.976a2.46,2.46,0,0,0-.111.474H979.4a2.468,2.468,0,0,0-.111-.474l-1.08-2.976h.656v-.757h-2.29v.757Zm7.03-1.775h1.029v-1H983.6v1Zm-.776,6.122h2.582v-.756H984.6V545.16h-1.826v.757h.847v3.59h-.8v.756Zm3.258-2.542a2.631,2.631,0,0,0,2.753,2.663,3.109,3.109,0,0,0,2.047-.787l-.373-.716a2.591,2.591,0,0,1-1.634.656,1.737,1.737,0,0,1-1.8-1.836,1.685,1.685,0,0,1,1.735-1.815c.454,0,1.1.192,1.1.585v.353h.867V546.2c0-.877-1.24-1.16-2-1.16a2.624,2.624,0,0,0-2.7,2.683Zm5.587-.01a2.6,2.6,0,0,0,2.7,2.673,3.127,3.127,0,0,0,1.987-.706l-.4-.716a2.483,2.483,0,0,1-1.523.575,1.718,1.718,0,0,1-1.765-1.735H996.4s.031-.242.031-.373a2.167,2.167,0,0,0-2.209-2.391,2.5,2.5,0,0,0-2.552,2.673Zm1.039-.535a1.5,1.5,0,0,1,1.493-1.361,1.245,1.245,0,0,1,1.221,1.361Zm7.2,3.086h2.794v-.787h-.9v-1.886h1.442a3.051,3.051,0,0,0,1.069-.152,2.291,2.291,0,0,0,.131-4.1,2.985,2.985,0,0,0-1.221-.192h-3.318v.777h.888v5.557h-.888v.787Zm1.9-3.5V543.97h1.332a1.847,1.847,0,0,1,.867.171,1.277,1.277,0,0,1,.635,1.21,1.293,1.293,0,0,1-.716,1.271,2.048,2.048,0,0,1-.8.141Zm4.246-.847h.645l1.644,4.347h1.1l1.654-4.347h.636v-.757h-2.279v.757h.656l-1.089,2.976a2.442,2.442,0,0,0-.111.474h-.03a2.432,2.432,0,0,0-.111-.474l-1.079-2.976h.655v-.757h-2.289v.757Zm6.808,2.481a1.756,1.756,0,0,0,1.947,1.906,2.764,2.764,0,0,0,.353-.02v-.817s-.09.01-.232.01c-.384,0-1.089-.131-1.089-1.17v-2.391h1.22v-.757h-1.22v-1.4h-.958v1.4H1012v.757h.858V548.4Zm3.358,1.865h1.049v-1.059h-1.049v1.059Zm4.882,0h5.265v-1.977h-.888v1.15H1023V543.97h.9v-.827H1021.1v.827h.887v5.507h-.887v.787Zm6.485-1.865a1.756,1.756,0,0,0,1.947,1.906,2.764,2.764,0,0,0,.353-.02v-.817s-.091.01-.232.01c-.383,0-1.089-.131-1.089-1.17v-2.391h1.221v-.757h-1.221v-1.4h-.958v1.4h-.877v.757h.857V548.4Zm3.016-.686c0,1.584.857,2.673,2.229,2.673a1.823,1.823,0,0,0,1.725-1.019h.02a1.036,1.036,0,0,0-.031.273v.071c0,.333.182.554.635.554h1.019v-.756h-.514a.2.2,0,0,1-.222-.222v-6.143h-1.825v.757h.847v1.614a2.31,2.31,0,0,0,.03.383h-.02a1.724,1.724,0,0,0-1.573-.857,2.375,2.375,0,0,0-2.32,2.673Zm1,0c0-1.16.656-1.816,1.473-1.816.969,0,1.443.888,1.443,1.826,0,1.271-.716,1.816-1.472,1.816-.848,0-1.443-.716-1.443-1.826Zm5.689,2.552h1.049v-1.059h-1.049Z" transform="translate(-0.224 -75.646)" fill="#30a659" fill-rule="evenodd"/><path d="M980.755,379.085l6.409,6.408a1.506,1.506,0,0,1,.217,2.184l-2.172,2.163a1.6,1.6,0,0,1-2.322-.443l-2.592-2.591a1.569,1.569,0,0,0-2.214,0l-17.53,17.53a1.569,1.569,0,0,0,0,2.214L964.2,410.2a9.71,9.71,0,0,0-5.618,2.561l-5.754-5.754a2.221,2.221,0,0,1,0-3.131l24.793-24.793a2.221,2.221,0,0,1,3.132,0Zm-5.822,41.846a9.712,9.712,0,0,1-2.561,5.618l5.252,5.252a2.22,2.22,0,0,0,3.131,0l24.793-24.793a2.221,2.221,0,0,0,0-3.131l-6.037-6.037c-.655-.7-1.339-.981-2.087-.252l-2.084,2.076a1.274,1.274,0,0,0-.029,2.157l2.515,2.515a1.569,1.569,0,0,1,0,2.214l-17.53,17.53a1.569,1.569,0,0,1-2.214,0Z" transform="translate(-25.718 -1.158)" fill="#092870" fill-rule="evenodd"/><path d="M1026.593,429.242l-6.408-6.409a1.506,1.506,0,0,1-.217-2.184l2.171-2.162a1.6,1.6,0,0,1,2.322.442l2.591,2.591a1.571,1.571,0,0,0,2.214,0l17.53-17.53a1.569,1.569,0,0,0,0-2.214l-17.53-17.531a1.571,1.571,0,0,0-2.214,0l-17.53,17.531a1.57,1.57,0,0,0,0,2.214l2.515,2.515a1.275,1.275,0,0,1-.029,2.157l-2.084,2.076c-.748.73-1.432.452-2.087-.252l-6.037-6.037a2.221,2.221,0,0,1,0-3.131l24.793-24.792a2.22,2.22,0,0,1,3.131,0l7.506,7.506a7.2,7.2,0,0,0,9.788,9.788l7.5,7.5a2.22,2.22,0,0,1,0,3.131l-24.792,24.793A2.22,2.22,0,0,1,1026.593,429.242Z" transform="translate(-47.881 0)" fill="#30a659" fill-rule="evenodd"/><path d="M1064.13,385.553l.245.246a7.2,7.2,0,1,0,9.981,10.081l.245.247a1.648,1.648,0,0,1-.011,2.324l-4.952,4.9a1.649,1.649,0,0,1-2.325-.011l-10.471-10.574a1.648,1.648,0,0,1,.011-2.324l4.952-4.9A1.649,1.649,0,0,1,1064.13,385.553Z" transform="translate(-72.87 -4.158)" fill="#092870" fill-rule="evenodd"/><path d="M1077.891,388.589a5.6,5.6,0,1,1-7.926-.039A5.6,5.6,0,0,1,1077.891,388.589Z" transform="translate(-78.272 -5)" fill="#092870" fill-rule="evenodd"/><path d="M964.337,453.248a7.6,7.6,0,1,1,10.746.053A7.6,7.6,0,0,1,964.337,453.248Z" transform="translate(-30.223 -29.157)" fill="#30a659" fill-rule="evenodd"/></g></svg>