<svg width="60" height="40" viewBox="0 0 60 40" xmlns="http://www.w3.org/2000/svg">
  <rect width="60" height="40" fill="#012169"/>
  <g stroke="#FFFFFF" stroke-width="2">
    <path d="M0,0 L60,40 M60,0 L0,40"/>
  </g>
  <g stroke="#C8102E" stroke-width="1.2">
    <path d="M0,0 L60,40 M60,0 L0,40"/>
  </g>
  <path stroke="#FFFFFF" stroke-width="3.2" d="M30,0 V40 M0,20 H60"/>
  <path stroke="#C8102E" stroke-width="2" d="M30,0 V40 M0,20 H60"/>
  <g fill="#FFFFFF">
    <polygon points="45,8 50,12 55,8 55,15 50,20 45,15"/>
    <polygon points="45,32 50,28 55,32 55,25 50,20 45,25"/>
    <polygon points="5,8 10,12 15,8 15,15 10,20 5,15"/>
    <polygon points="5,32 10,28 15,32 15,25 10,20 5,25"/>
  </g>
  <text x="30" y="25" font-family="Arial, sans-serif" font-size="10" font-weight="bold" text-anchor="middle" fill="#FFFFFF">AU</text>
</svg>